<svg width="24" height="24" viewBox="0 0 24 24" fill="none" xmlns="http://www.w3.org/2000/svg">
<g clip-path="url(#clip0_171_2)">
<path d="M12 0C18.6274 0 24 5.37258 24 12C24 18.6274 18.6274 24 12 24C5.37258 24 0 18.6274 0 12C0 5.37258 5.37258 0 12 0ZM7.375 5.72656C5.09963 6.87365 4.92403 6.97417 4.5918 7.3252C4.10277 7.82676 3.95262 8.29712 3.99023 9.21875C4.00904 9.77658 4.03353 9.90843 4.20898 10.2656C4.31555 10.4913 4.4416 10.7292 4.49805 10.792C4.58579 10.9111 4.5916 10.8926 4.68555 10.5732C4.82975 10.0905 5.02472 9.82065 5.36328 9.65137C5.63892 9.51357 5.70227 9.51383 7.0498 9.52637L8.4541 9.54492L7.66992 9.9834C6.78603 10.4849 6.39108 10.8362 5.8457 11.626C5.65135 11.9144 5.50715 12.1465 5.53223 12.1465C5.61396 12.1463 6.72965 11.4821 7.59473 10.918L8.49121 10.335L8.50391 13.0996L8.52246 15.8711L9.05566 15.3691L9.58887 14.874L9.60742 15.1494C9.63877 15.5444 9.54495 15.7142 9.0498 16.1592L8.60449 16.5537L8.29688 16.2471L7.99023 15.9463V15.2998C7.99022 14.88 7.96477 14.6543 7.9209 14.6543C7.88322 14.6544 7.62582 14.8735 7.34375 15.1367C7.05537 15.4063 6.62286 15.8139 6.37207 16.0459C6.12756 16.2779 5.9209 16.5105 5.9209 16.5732C5.92102 16.8368 6.07795 17.4756 6.14062 17.4756C6.17885 17.4748 6.36022 17.3185 6.54785 17.1309C6.73577 16.9429 6.91121 16.7864 6.93652 16.7861C6.9616 16.7861 6.98633 17.1437 6.98633 17.5889V18.3916L7.42578 18.8232C7.66371 19.0612 7.8768 19.2374 7.90234 19.2129C7.92742 19.1941 7.95816 18.899 7.9707 18.5605L8.00195 17.9463L8.24707 17.6953L8.49121 17.4443V19.7578L8.82422 20.0586L9.14941 20.3662L9.16895 19.6572C9.18774 18.9932 9.19399 18.9432 9.35059 18.7803C9.44463 18.68 9.53881 18.6045 9.55762 18.6045C9.58264 18.6075 9.61409 18.926 9.63281 19.3066C9.67045 20.1028 9.83365 20.6737 10.1973 21.2881C10.4176 21.665 11.7204 23.0557 11.8457 23.0557C11.9837 23.0556 13.2819 21.6511 13.5264 21.2373C13.658 21.0116 13.8207 20.648 13.8896 20.4287C14.0276 19.971 14.1463 18.9677 14.0898 18.7295C14.0586 18.5793 14.0651 18.5798 14.2656 18.7803C14.4786 18.9808 14.4794 18.9873 14.5107 19.6768L14.542 20.3789L14.874 20.0654L15.2002 19.7578V17.4502L15.4824 17.7266L15.7646 18.002V19.3252L16.2529 18.8359L16.7363 18.3535L16.7549 17.5381C16.7674 17.0875 16.7923 16.7247 16.8174 16.7236C16.8425 16.7236 17.031 16.8986 17.2441 17.1055L17.6387 17.4941L17.6768 17.25C17.7018 17.1183 17.745 16.9111 17.7764 16.792C17.8014 16.6729 17.8014 16.5355 17.7764 16.4854C17.745 16.4289 17.2874 15.9831 16.7607 15.4941L15.7959 14.6045L15.7646 15.2441L15.7324 15.8828L15.4189 16.2402L15.1123 16.6045L14.1279 15.6201L14.1465 15.2754L14.165 14.9365L14.667 15.4004L15.1689 15.8711L15.1875 13.2246C15.1938 11.7514 15.2255 10.5791 15.2568 10.5791C15.2925 10.5815 15.7921 10.8374 16.3662 11.1494C17.8521 11.9457 20.0585 13.0114 20.0146 12.9111C20.0057 12.8755 19.6687 12.3131 19.2754 11.6514L18.5537 10.4541L17.9268 10.209C17.5813 10.0708 16.3407 9.60756 15.1689 9.16895C13.9978 8.73056 13.0016 8.34167 12.9619 8.30957C12.8741 8.2406 12.8492 7.75781 12.9307 7.75781C13.0577 7.76083 17.6208 9.4326 18.9238 9.94629C19.1932 10.0591 19.4315 10.1339 19.4443 10.1152C19.4631 10.0964 19.1433 9.53859 18.7295 8.87402L17.9834 7.66406L16.7363 7.62598C15.8214 7.60091 15.3947 7.56344 15.1689 7.48828C14.9997 7.43186 14.3348 7.30652 13.6953 7.21875C13.0576 7.12496 12.5261 7.04315 12.5107 7.03027C12.4982 7.01773 12.5671 6.89281 12.6611 6.75488C12.7739 6.5983 12.88 6.50403 12.9678 6.50391C13.1933 6.50391 15.2216 6.86671 15.4189 6.94238C15.5255 6.98627 16.1841 7.03099 16.9238 7.0498C18.6605 7.09996 18.774 7.06856 19.4824 6.37891L19.9961 5.88281L16.6289 5.87695C14.7733 5.87695 13.2568 5.85808 13.2568 5.83301C13.257 5.80769 13.3313 5.68224 13.4189 5.55078L13.5889 5.3125H16.2725L16.8359 4.91797L17.4004 4.5293L15.2881 4.50977L13.1689 4.49805L12.9238 4.72949C12.7859 4.86119 12.3915 5.4067 12.0342 5.93945C11.3508 6.98021 11.043 7.31295 10.5352 7.54492C9.38805 8.0714 8.59787 7.93989 7.80176 7.09375L7.41895 6.67969L7.75195 6.5166C8.05899 6.36623 8.14721 6.35392 8.97461 6.34766H9.87109L9.93945 6.00195C10.0773 5.31268 10.0091 5.375 10.5732 5.375C11.0619 5.375 11.087 5.36893 11.4941 5.09961C11.7195 4.94935 11.9767 4.7491 12.0586 4.66113L12.209 4.49805H9.80176L7.375 5.72656ZM14.0586 16.5791L14.0781 17.125L12.9932 18.209C12.3976 18.8046 11.8829 19.2939 11.8516 19.2939C11.8219 19.2893 11.3037 18.8018 10.7109 18.209L9.62012 17.1309V16.0713L9.82715 16.2529C9.93377 16.3533 10.435 16.8426 10.9365 17.3379L11.8516 18.2344L12.9424 17.1309L14.04 16.0273L14.0586 16.5791ZM9.76465 13.3691C9.84071 13.4389 10.3417 13.9216 10.874 14.4414L11.8457 15.3945L12.9424 14.3281L14.04 13.2627L14.0586 13.8145L14.0781 14.3662L12.9619 15.4824L11.8457 16.5977L10.7363 15.4824L9.62012 14.3662V13.2559L9.76465 13.3691ZM15.7646 13.7705L16.4346 14.3535C16.8044 14.6732 17.5131 15.2936 18.0146 15.7324L18.9307 16.5293L18.9678 15.9209C19.0429 14.7871 19.0305 13.3091 18.9492 13.2002C18.9053 13.1438 18.5102 12.9117 18.0713 12.6797L17.2686 12.2598V13.1875L17.6133 13.4824C17.9957 13.821 18.0401 13.9397 18.0088 14.623L17.9902 15.0557L17.3818 14.4727L16.7676 13.8896V12.1338L16.5859 11.9707C16.4856 11.8767 16.2595 11.72 16.084 11.626L15.7646 11.4502V13.7705ZM7.94629 11.4004C7.91495 11.4004 7.70146 11.5382 7.45703 11.7012L7.01855 12.002L6.98633 12.9492L6.95508 13.9023L6.5166 14.3477C6.27846 14.5921 6.0023 14.8421 5.9082 14.9111L5.73242 15.0371V13.9023L6.10938 13.5381L6.48535 13.1689V12.7549C6.48535 12.5229 6.46607 12.335 6.44727 12.335C6.42494 12.3371 6.04441 12.5496 5.60156 12.8115L4.79199 13.2881V14.8799C4.79199 15.7576 4.81127 16.4727 4.83008 16.4727C4.8499 16.4717 5.23772 16.1394 5.68848 15.7324C6.14605 15.325 6.81713 14.7362 7.19336 14.4102C7.56319 14.0905 7.8953 13.7767 7.92676 13.7139C8.00188 13.5761 8.01492 11.4005 7.94629 11.4004ZM10.1406 11.1807C10.4228 11.4565 10.9117 11.9334 11.2314 12.2344C11.5449 12.5353 11.8271 12.7797 11.8584 12.7734C11.8857 12.7713 12.3989 12.2954 12.9932 11.7324L14.0713 10.6924V11.5508L12.9746 12.6484L11.8838 13.7393L10.9863 12.874C9.54447 11.476 9.62012 11.5759 9.62012 11.0869V10.6729L10.1406 11.1807ZM13.4941 9.4502C13.5192 9.4502 13.6706 9.5508 13.8398 9.66992C14.0022 9.79485 14.1329 9.91384 14.1338 9.93945C14.1338 9.96453 13.8517 10.2655 13.5068 10.6104L12.8799 11.2373V10.8359C12.8799 10.4414 12.8866 10.435 13.1621 10.1846C13.4004 9.96513 13.4443 9.89537 13.4443 9.68848C13.4444 9.55763 13.4631 9.45118 13.4941 9.4502ZM10.3477 10.002L10.8115 10.4229V10.792C10.8115 11.1304 10.8052 11.1493 10.7051 11.0742C10.4172 10.8615 9.6232 10.0432 9.62012 9.95898C9.62012 9.90883 9.68299 9.8018 9.75195 9.72656L9.88965 9.58203L10.3477 10.002ZM11.4072 8.19629C11.4463 8.19737 11.7084 8.35427 12.002 8.54785C12.2964 8.74204 12.5476 8.91102 12.5605 8.92383C12.5982 8.95518 11.9205 9.70117 11.8516 9.70117C11.8125 9.69964 11.5567 9.48088 11.2881 9.20605C10.7364 8.65433 10.7173 8.56067 11.1123 8.33496C11.2377 8.25973 11.3759 8.19629 11.4072 8.19629ZM6.73633 7.00586C6.75759 7.00844 6.96944 7.2015 7.20605 7.44434L7.63867 7.88281H5.85156L5.88965 7.73926C5.97115 7.47593 6.10922 7.31942 6.41016 7.16895C6.57317 7.08117 6.71752 7.01213 6.73633 7.00586ZM16.6416 1.04297C16.6349 0.94921 12.019 0.974094 11.752 1.07422C11.6328 1.1181 10.6983 1.70124 9.68262 2.37207C8.20981 3.34976 7.75814 3.68231 7.46973 4.00195C7.11863 4.3844 6.6358 5.23121 6.67969 5.36914C6.69253 5.40031 7.30067 5.09939 8.02148 4.69824L9.33789 3.96484L13.6328 3.93359C17.7001 3.90226 17.9396 3.89594 18.1465 3.7832C18.3785 3.65781 19.2129 2.88604 19.2129 2.79199C19.2033 2.76695 17.3822 2.73575 15.1562 2.72949L11.0996 2.71094L11.4629 2.45996L11.8271 2.20898L13.501 2.17773L15.1689 2.14648L15.5195 1.9707C15.8644 1.79513 16.6416 1.15582 16.6416 1.04297Z" fill="white"/>
</g>
<defs>
<clipPath id="clip0_171_2">
<rect width="24" height="24" fill="white"/>
</clipPath>
</defs>
</svg>
