<svg width="530" height="530" viewBox="0 0 530 530" fill="none" xmlns="http://www.w3.org/2000/svg">
<g clip-path="url(#clip0_159_2)">
<path d="M215.33 -126.159C223.839 -130.621 232.748 -133.612 242.59 -131.063C246.368 -130.085 250.167 -130.18 253.987 -130.908C268.021 -133.583 279.448 -128.173 288.322 -118.063C295.381 -110.022 304.202 -105.172 313.274 -100.341C316.361 -98.6969 319.84 -97.5297 322.473 -95.3417C330.861 -88.3688 340.88 -87.0636 351.092 -86.7001C356.248 -86.5166 361.207 -85.7526 365.449 -83.0976C374.189 -77.6282 384.327 -75.8867 393.58 -71.8261C402.463 -67.9278 411.441 -64.3685 415.772 -54.5927C416.735 -52.4209 419.112 -51.4093 421.025 -50.0829C432.096 -42.41 440.822 -32.6394 448.516 -21.5566C456.938 -9.42891 630.156 -81.3535 552.015 -29.4345C557.762 -23.8162 637.623 -17.8004 556.515 15.0655C564.289 19.9959 569.354 33.478 542.677 46.5655C552 54.7732 534.52 60.2591 542.677 69.8555C549.824 78.264 555.338 87.0313 559.218 97.3448C562.285 105.5 569.903 110.855 574.958 117.866C582.934 128.931 592.319 139.038 598.654 151.214C604.644 162.725 607.559 175.279 608.902 188.091C610.968 207.787 612.516 227.538 614.377 247.256C615.118 255.109 613.916 262.865 613.444 270.649C612.96 278.655 612.266 286.545 615.342 294.302C617.91 300.78 618.234 307.468 616.663 314.402C615.41 319.935 615.476 325.644 617.305 331.195C618.262 334.102 618.64 337.281 617.53 340.065C613.103 351.173 615.623 362.06 618.165 372.957C619.546 378.875 619.195 384.503 616.377 389.956C614.964 392.69 613.287 394.667 610.126 395.897C604.948 397.911 605.587 402.904 606.339 407.101C607.454 413.325 609.373 419.478 609.454 425.796C609.597 436.824 613.727 447.335 613.123 458.462C612.833 463.81 612.909 469.114 610.767 474.149C610.02 475.904 609.706 477.863 610.675 479.489C616.993 490.099 614.267 501.513 613.779 512.724C613.649 515.714 613.226 518.69 613.04 521.679C612.763 526.128 611.604 530.216 608.477 533.552C604.539 537.752 602.386 542.918 599.864 548.02C593.989 559.907 589.31 572.439 581.336 583.263C576.966 589.194 576.149 596.87 571.989 603.072C566.541 611.197 560.539 618.538 551.874 623.402C550.457 624.198 549.22 625.388 548.062 626.557C543.54 631.118 539.371 635.885 532.865 638.113C528.715 639.535 524.747 641.933 521.485 645.183C512.722 653.913 502.901 661.23 492.462 667.902C480.843 675.329 470.082 684.015 459.317 692.65C454.206 696.751 447.762 696.52 441.732 697.515C439.745 697.842 437.783 698.055 436.048 699.193C434.042 700.51 432.055 700.719 430.077 699.057C427.455 696.852 425.052 697.492 423.227 700.039C421.295 702.736 419.132 702.684 416.247 701.749C408.786 699.331 401.191 697.581 393.235 697.644C387.082 697.692 381.247 694.856 374.938 695.493C371.944 695.796 368.888 695.817 366.102 696.921C359.302 699.614 352.047 699.733 345.426 698.056C335.316 695.495 326.493 698.995 317.085 700.963C306.369 703.204 295.695 707.811 284.322 703.99C282.105 703.245 279.724 703.569 277.385 703.929C271.488 704.837 265.743 705.577 259.61 704.19C254.386 703.008 248.774 703.368 244.858 708.842C242.547 712.074 237.741 712.668 235.669 716.857C234.909 718.393 232.228 716.331 230.512 715.282C218.066 707.68 208.442 696.148 195.308 689.619C186.956 685.468 177.895 682.901 168.764 680.986C162.316 679.635 155.921 683.739 153.329 690.962C151.518 696.008 148.181 697.113 143.598 696.419C140.297 695.919 136.652 695.34 134.268 693.174C127.567 687.088 119.253 686.585 111.055 685.403C110.067 685.261 109.084 685.081 107.659 684.846C96.4782 683.517 85.6842 682.752 75.5088 678.399C68.5145 675.406 63.3799 669.626 56.5098 666.547C45.7495 661.724 35.088 656.195 22.7197 658.638C17.3731 659.694 12.167 661.517 6.95997 663.188C5.6035 663.623 3.7435 664.553 3.38086 665.668C1.76429 670.636 -3.02202 673.269 -5.10449 677.695C-6.43108 680.515 -8.24146 680.886 -10.6699 680.382C-16.9654 679.076 -23.271 679.231 -29.5469 680.261C-32.5542 680.754 -33.9025 679.614 -34.4121 676.814C-34.7994 674.686 -35.2275 672.547 -35.876 670.488C-37.1754 666.363 -39.7389 665.654 -42.1162 669.216C-44.3802 672.608 -46.8287 672.726 -50.1992 671.871C-53.2948 671.086 -56.039 670.987 -58.6582 674.059C-61.1107 676.935 -64.991 675.754 -68.542 674.647C-61.6846 672.407 -56.3215 667.636 -50.0537 664.546C-43.6691 661.399 -41.6855 653.86 -47.0635 649.078C-52.1958 644.515 -56.8466 639.592 -61.1943 634.341C-63.5042 631.551 -67.7857 633.203 -70.1338 630.076C-67.0247 627.455 -65.214 624.781 -70.1807 622.217C-72.3495 621.097 -70.4869 619.682 -70.1201 618.046C-73.8729 616.747 -74.9919 613.822 -75.0225 609.982C-75.0553 605.853 -75.1548 601.864 -80.2441 599.756C-82.9215 598.647 -83.1167 595.095 -81.9707 592.197C-81.1866 590.215 -80.177 588.321 -79.251 586.352C-81.6914 583.812 -84.5126 584.833 -87.0088 584.769C-92.144 584.636 -96.2196 583.128 -97.7246 577.689C-98.5593 574.672 -101.183 573.886 -103.858 572.722C-102.354 567.193 -97.6296 563.375 -96.3164 557.883C-96.1847 557.332 -95.5174 556.692 -94.957 556.493C-83.9315 552.571 -82.5235 543.35 -81.7617 533.44C-81.1717 525.765 -78.7978 518.196 -75.7324 511.357C-71.3181 501.507 -71.4628 491.709 -73.8584 482.049C-76.2435 472.431 -75.3468 462.519 -77.9609 452.998C-79.5164 447.333 -81.6856 442.035 -84.5723 436.969C-85.3872 435.539 -86.4751 434.53 -88.1328 434.699C-92.5802 435.155 -94.9586 432.476 -96.6113 429.019C-100.84 420.172 -106.418 411.988 -109.323 402.481C-110.957 397.135 -114.917 395.562 -119.247 398.053C-129.802 404.123 -135.383 403.989 -140.593 397.541C-145.89 390.984 -144.805 378.427 -138.763 371.607C-133.037 365.143 -126.977 360.294 -117.581 363.224C-115.822 363.772 -113.718 363.097 -112.381 361.907C-106.789 356.932 -100.875 352.051 -99.2275 344.209C-97.5281 336.118 -93.7235 328.944 -90.4551 321.465C-86.4681 312.342 -81.082 303.287 -83.4492 292.508C-83.8585 290.644 -83.5714 288.709 -82.4609 287.229C-80.3514 284.416 -80.2319 281.04 -79.2432 277.895C-72.6372 256.878 -76.4671 235.531 -76.8477 214.266C-77.1753 195.958 -77.8399 177.624 -75.6953 159.344C-74.9402 152.907 -74.8636 146.393 -74.3779 139.922C-72.376 113.25 -66.3632 87.015 -66.0986 60.1231C-65.9849 48.5538 -67.916 37.2237 -68.415 25.7511C-68.5384 22.9158 -68.6944 20.1342 -68.3623 17.297C-67.4569 9.56261 -68.496 1.9909 -70.7842 -5.40617C-72.0689 -9.55938 -72.0208 -13.477 -70.2139 -17.5439C-67.4153 -23.8426 -66.375 -30.3621 -66.6982 -37.4355C-67.0701 -45.5718 -65.9559 -53.7934 -59.0381 -59.7402C-57.8958 -60.7221 -56.8902 -61.8066 -55.3936 -62.2675C-49.5411 -64.07 -44.5946 -67.2966 -40.1865 -71.5419C-36.3459 -75.2407 -31.8139 -76.1182 -26.833 -73.8075C-21.278 -71.2306 -15.4546 -70.1525 -9.32714 -70.5937C-4.27055 -70.9578 0.57646 -70.52 5.01758 -67.5234C8.70072 -65.038 12.0927 -65.7631 15.2627 -69.0527C19.2269 -73.1665 22.5276 -77.7214 25.5596 -82.5195C26.8031 -84.4874 27.8851 -86.6733 29.5264 -88.2558C39.7976 -98.1586 48.1434 -110.023 59.7158 -118.562C70.0708 -126.203 81.6768 -127.955 94.2109 -124.931C112.345 -120.556 130.539 -116.474 147.995 -109.677C155.963 -106.574 164.561 -105.844 172.921 -104.66C180.223 -103.626 185.582 -109.21 190.877 -113.256C194.386 -115.937 197.839 -118.662 201.988 -119.63C207.058 -120.812 210.94 -123.857 215.33 -126.159ZM0.0146525 531.566H530.015V-0.434495H0.0146525V531.566ZM58.168 0.655349C60.0588 0.736297 60.5038 2.13724 61.2188 3.20808C81.8558 34.1187 109.221 57.4026 141.978 74.6231C175.272 92.1266 210.533 104.753 245.974 117.003C267.375 124.4 288.826 131.78 308.624 143.068C315.168 146.799 321.332 151.053 326.322 156.782C332.598 163.988 333.35 170.762 329.091 179.343C326.167 185.233 321.992 190.205 317.806 195.174C308.461 206.265 300.456 218.058 298.577 232.914C296.134 252.237 303.463 268.151 316.378 281.844C324.748 290.717 335.129 296.653 346.429 301.134C350.052 302.571 351.703 301.793 352.168 297.96C354.213 281.1 360.57 266.211 372.451 253.864C372.756 253.547 372.834 253.011 373.316 251.874C363.947 253.257 358.219 259.949 350.429 263.955C351.354 262.007 352.13 259.97 353.229 258.126C360.536 245.877 370.957 237.079 383.653 230.801C386.928 229.181 389.036 229.205 391.328 232.893C398.046 243.7 411.159 245.016 420.224 236.233C420.008 234.968 418.936 234.793 417.992 234.632C405.282 232.46 398.582 223.923 394.815 212.487C393.228 207.668 394.821 205.812 399.523 207.153C421.616 213.458 443.699 219.84 465.073 228.351C471.071 230.739 476.141 234.772 479.349 240.42C481.809 244.752 485.117 247.827 489.616 249.414C505.437 254.997 502.506 271.91 495.043 282.326C491.482 278.545 487.464 275.638 482.187 274.641C468.484 272.051 454.434 280.096 451.608 292.443C449.563 301.38 453.436 308.888 462.746 312.704C466.128 314.09 467.376 316.242 467.594 319.381C469.457 346.231 459.232 368.073 439.805 386.058C439.485 386.354 438.912 386.376 438.292 386.581C436.531 384.536 438.197 382.745 438.771 381.071C443.031 368.665 444.853 356.184 440.413 343.416C439.888 341.905 439.743 340.134 437.292 339.078C434.667 369.248 419.949 391.667 394.458 407.797C392.749 404.718 394.748 403.309 395.689 401.837C407.134 383.941 413.193 364.515 412.263 343.173C411.71 330.491 407.945 318.65 401.914 307.516C401.455 306.667 400.99 305.704 399.34 305.651C397.152 312.866 400.452 320.84 397.066 329.002C379.436 311.197 378.327 291.506 387.153 270.118C384.112 270.025 383.264 271.875 382.176 273.213C368.286 290.304 367.944 314.939 381.337 332.458C383.765 335.634 386.391 338.661 388.791 341.857C395.543 350.85 397.449 360.574 393.983 371.529C387.201 392.97 374.776 410.555 358.071 425.273C355.24 427.767 353.935 430.353 353.535 434.156C351.296 455.468 353.206 476.368 358.915 496.971C359.988 500.273 360.851 502.796 361.63 505.344C363.037 509.942 364.896 513.148 370.903 512.993C376.776 512.842 381.763 519.525 381.741 525.39C381.728 528.995 379.004 528.912 376.861 528.941C368.209 529.061 359.518 528.415 350.907 529.007C343.937 529.486 340.647 525.925 337.252 520.721C322.954 498.804 313.043 475.24 308.775 449.335C305.546 429.729 307.839 410.882 315.729 392.674C316.29 391.382 317.439 390.155 316.687 388.462C314.484 387.876 313.338 389.611 312.008 390.675C305.023 396.262 300.493 403.619 297.742 411.975C296.497 415.758 294.594 416.847 290.814 416.371C278.91 414.872 266.957 414.121 254.937 414.19C245.235 414.245 235.658 415.084 226.163 417.042C224.428 417.4 222.634 417.475 220.606 417.711C220.39 411.395 223.724 406.044 222.995 399.965C220.077 400.524 220.103 402.886 219.308 404.518C208.463 426.751 193.612 445.009 169.72 454.145C158.62 458.389 146.936 458.904 135.24 458.422C130.883 458.243 128.203 459.574 125.891 463.341C117.762 476.584 110.057 489.975 106.228 505.226C104.737 511.162 104.857 511.433 110.678 511.942C118.293 512.609 122.185 517.904 120.804 525.441C120.382 527.741 119.137 528.542 117.055 528.545C103.723 528.563 90.3904 528.57 77.0586 528.579C72.5139 528.582 73.0814 525.36 73.5068 522.581C75.6281 508.725 79.013 495.195 83.9531 482.047C89.4724 467.358 95.706 453.026 104.032 439.676C105.078 437.999 105.89 436.288 108.304 435.917C126.227 433.166 138.606 422.227 148.597 408.047C153.277 401.404 157.399 394.385 159.535 386.403C157.275 384.908 155.744 386.415 154.183 387.03C139.733 392.727 125.109 397.627 109.458 398.908C83.9471 400.997 65.0815 387.675 60.7568 365.273C56.7608 344.572 70.7125 323.566 91.3994 319.71C94.4531 319.141 97.1071 317.997 99.3262 315.821C104.826 310.429 111.425 307.913 119.137 307.66C123.435 307.519 127.699 306.476 131.989 305.916C135.833 305.415 137.376 306.76 135.89 310.746C131.652 322.114 124.932 330.874 112.415 333.828C108.198 334.823 104.087 333.961 100.03 333.205C81.7231 329.795 66.9824 347.488 73.8965 367.415C78.9113 381.869 93.7265 389.252 110.594 386.405C129.031 383.294 145.16 374.626 160.913 365.16C169.193 360.185 177.367 355.023 185.468 349.759C197.539 341.913 210.708 337.048 224.881 334.845C234.262 333.386 242.1 328.453 250.277 324.048C247.123 322.818 244.084 323.538 241.047 323.814C225.758 325.2 210.462 326.445 195.515 321.483C192.368 320.439 189.353 318.982 186.318 317.622C184.972 317.019 183.4 316.386 183.421 314.559C183.442 312.724 185.062 312.212 186.398 311.575C197.524 306.277 208.671 301.027 219.775 295.685C222.371 294.436 225.339 293.683 228.286 290.108C200.357 296.3 173.796 299.964 148.562 285.41C141.933 281.587 138.08 278.146 135.155 273.456C159.73 270.15 183.788 266.539 206.975 259.113C206.916 258.643 206.857 258.173 206.799 257.702C200.795 258.093 194.795 258.659 188.784 258.845C163.55 259.623 138.779 257.918 116.329 244.544C107.225 239.121 99.3328 232.254 92.4082 224.266C91.3721 223.071 89.644 221.819 90.6231 219.977C91.6333 218.076 93.5702 218.939 95.1328 219.247C123.491 224.834 152.024 225.166 180.661 222.047C183.691 221.717 186.932 222.592 189.999 220.767C189.102 218.713 187.413 219.313 186.11 219.219C163.127 217.557 140.404 214.473 118.449 207.076C93.2727 198.593 74.4035 182.7 62.0752 159.123C61.0223 157.11 59.627 155.182 59.9561 151.837C97.1837 169.009 136.187 177.456 177.582 180.078C175.419 177.036 172.932 177.207 170.868 176.763C145.437 171.286 121.331 162.418 98.8662 149.178C74.9718 135.095 57.5953 115.752 49.5488 88.7706C49.0276 87.0227 48.6757 85.2161 48.3672 83.4161C48.2345 82.6412 48.4143 81.8126 48.5215 79.5294C85.2337 108.091 125.972 125.845 170.51 136.463C169.943 133.676 167.894 133.591 166.384 132.973C140.499 122.382 115.694 109.852 94.6895 91.0343C76.4059 74.654 63.0966 55.016 58.0049 30.5606C56.0556 21.1982 55.7219 11.7282 57.3682 2.25496C57.4708 1.66573 57.9193 1.13663 58.168 0.655349ZM414.467 413.763C415.934 412.765 417.366 410.997 419.33 412.178C421.581 413.531 420.366 415.719 420.077 417.619C415.103 451.49 425.803 480.382 443.656 507.383C445.238 509.775 446.977 510.967 450.097 511.066C457.931 511.314 463.501 517.055 464.174 524.631C464.387 527.036 463.985 528.609 461.204 528.564C450.231 528.385 439.258 529.348 428.281 528.566C426.075 528.409 424.56 527.267 423.226 525.727C401.474 500.612 383.268 473.366 372.674 441.552C370.574 435.246 370.629 435.224 376.87 433.13C390.388 428.593 402.722 421.749 414.467 413.763ZM468.686 516.97C467.493 513.079 468.652 512.271 471.634 513.38C475.516 514.824 477.979 517.678 479.092 521.511C479.822 524.024 481.356 527.237 477.177 528.439C472.861 529.68 470.78 528.196 470.053 523.793C469.675 521.506 469.146 519.243 468.686 516.97ZM244.043 516.988C243.586 514.95 243.672 513.636 246.267 514.06C250.994 515.893 253.05 519.194 254.19 523.174C254.858 525.503 255.358 528.078 251.862 528.441C249.008 528.736 245.629 529.576 245.313 524.807C245.138 522.182 244.62 519.562 244.043 516.988ZM234.126 430.596C245.507 428.757 256.875 429.191 268.859 431.006C266.623 440.628 261.56 447.783 255.644 454.223C246.42 464.261 234.79 470.717 221.796 474.531C217.502 475.792 216.485 477.691 217.238 482.016C218.722 490.536 220.074 499.049 222.49 507.386C223.546 511.027 224.94 513.033 229.197 513.1C234.818 513.188 239.685 518.945 239.78 524.439C239.827 527.115 238.87 528.572 236.069 528.497C225.677 528.557 216.186 528.515 206.697 528.654C203.226 528.705 201.199 527.392 199.978 524.052C193.488 506.307 188.933 488.172 188.087 469.202C187.948 466.092 188.674 463.796 191.345 461.967C201.713 454.864 210.712 446.284 218.683 436.561C222.608 431.772 228.612 431.487 234.126 430.596ZM128.424 515.195C130.365 514.315 131.854 515.647 133.213 516.905C134.807 519.183 135.329 521.091 135.566 523.062C136.011 526.755 134.485 528.492 130.591 528.626C126.432 528.769 126.523 526.483 126.965 523.566C127.161 522.271 127.04 520.931 127.125 519.616C127.227 518.04 126.54 516.05 128.424 515.195ZM386.153 514.403C392.256 514.375 397.378 519.861 396.905 525.54C396.781 527.028 396.261 528.26 394.693 528.351C392.202 528.495 389.208 529.64 388.128 525.894C387.369 521.536 386.764 517.99 386.153 514.403ZM220.908 3.54793C242.522 42.456 273.899 69.4226 311.564 89.5938C332.226 101.562 353.318 111.292 372.577 124.226C382.419 130.835 391.721 138.127 399.249 147.425C408.013 158.25 407.356 169.662 397.406 179.511C394.068 182.815 390.148 185.362 386.285 187.968C372.695 197.134 363.836 209.557 360.255 225.619C359.8 227.659 358.908 229.327 357.326 230.693C344.362 241.891 336.714 256.195 332.847 272.697C332.582 273.825 332.477 275.022 330.735 275.962C322.189 268.429 316.155 259.173 313.438 247.894C309.678 232.289 317.078 220.087 325.988 208.492C330.956 202.028 336.56 196.051 340.718 188.974C350.307 172.653 348.125 156.793 334.295 143.792C320.691 131.005 304.116 123.225 287.091 116.275C264.568 107.082 241.231 100.155 218.417 91.7637C213.397 89.9174 210.411 87.2969 209.049 81.9942C207.389 75.5314 205.72 69.1048 205.33 62.4415C205.204 60.2869 204.128 57.3934 206.907 56.1905C209.291 55.1589 210.854 57.4161 212.436 58.7921C217.974 63.6111 223.856 67.9788 229.861 72.1837C231.191 73.1144 232.425 74.3575 234.592 74.1427C235.157 71.7095 233.258 70.2561 232.206 68.5645C222.677 53.2465 216.955 36.7926 217.382 18.5528C217.489 13.9768 217.851 9.35626 220.908 3.54793ZM470.632 251.743C468.053 246.072 452.807 239.325 445.161 240.552C445.407 244.638 448.6 246.43 451.419 248.297C454.096 250.07 454.813 251.863 453.434 254.925C452.502 256.993 451.191 259.444 453.389 262.427C456.058 257.252 459.951 254.268 465.791 253.539C467.613 252.767 469.567 253.392 470.632 251.743Z" fill="white"/>
</g>
<defs>
<clipPath id="clip0_159_2">
<rect width="530" height="530" fill="white"/>
</clipPath>
</defs>
</svg>
