<svg width="708" height="708" viewBox="0 0 708 708" fill="none" xmlns="http://www.w3.org/2000/svg">
<g clip-path="url(#clip0_160_11)">
<mask id="mask0_160_11" style="mask-type:alpha" maskUnits="userSpaceOnUse" x="-34" y="-71" width="776" height="850">
<path d="M229.761 745.846C218.58 744.517 207.787 743.753 197.611 739.399C190.617 736.406 185.482 730.626 178.612 727.547C167.852 722.724 157.19 717.195 144.822 719.638C139.475 720.694 134.269 722.517 129.062 724.188C127.705 724.623 125.846 725.553 125.483 726.668C123.867 731.636 119.081 734.27 116.998 738.696C115.671 741.515 113.861 741.885 111.432 741.381C105.137 740.076 98.8313 740.232 92.5555 741.261C89.5481 741.754 88.1997 740.614 87.6901 737.814C87.3028 735.686 86.8748 733.547 86.2263 731.488C84.9269 727.363 82.3637 726.654 79.9864 730.216C77.7224 733.608 75.274 733.725 71.9035 732.871C68.8077 732.086 66.0636 731.987 63.4443 735.059C60.9917 737.936 57.1109 736.754 53.5598 735.646C60.4174 733.406 65.7809 728.636 72.0489 725.546C78.4335 722.398 80.4172 714.86 75.0392 710.078C69.9068 705.515 65.2562 700.591 60.9084 695.34C58.5985 692.551 54.3169 694.202 51.9687 691.076C55.0778 688.455 56.8884 685.78 51.9218 683.216C49.7529 682.097 51.6157 680.683 51.9825 679.046C48.2293 677.747 47.1108 674.822 47.0802 670.982C47.0474 666.853 46.9477 662.864 41.8581 660.756C39.1807 659.646 38.9853 656.095 40.1313 653.197C40.9154 651.214 41.9253 649.321 42.8513 647.352C40.4108 644.811 37.5894 645.833 35.093 645.769C29.9577 645.636 25.8823 644.128 24.3773 638.688C23.5426 635.671 20.919 634.886 18.2438 633.721C19.7483 628.192 24.473 624.375 25.7862 618.883C25.9179 618.332 26.5846 617.692 27.145 617.493C38.1707 613.571 39.5783 604.351 40.3401 594.44C40.93 586.765 43.3044 579.196 46.3699 572.357C50.7844 562.507 50.6398 552.709 48.2441 543.049C45.8589 533.431 37.7072 557.021 35.093 547.5C33.5375 541.835 27.264 552.566 24.3773 547.5C23.5623 546.07 11.7599 535.362 10.1021 535.532C5.65469 535.987 7.75475 504.133 6.10205 500.676C1.87302 491.829 15.6844 472.988 12.7787 463.48C11.145 458.134 7.18524 456.562 2.85476 459.053C-7.70049 465.123 -13.2805 464.989 -18.4905 458.541C-23.7882 451.984 -22.7023 439.427 -16.6602 432.607C-10.9344 426.143 -11.2943 421.57 -1.89795 424.5C-0.139374 425.048 -6.73557 421.19 -5.39795 420C0.193848 415.025 -13.0452 416.842 -11.3979 409C-9.69844 400.909 -9.66644 395.479 -6.39795 388C-2.411 378.877 -4.03075 380.279 -6.39795 369.5C-6.80737 367.636 -11.0085 358.98 -9.89795 357.5C-7.7883 354.688 -10.8867 349.146 -9.89795 346C-3.29187 324.984 -3.01744 311.765 -3.39795 290.5C-3.72556 272.192 -36.0425 269.78 -33.8978 251.5C-33.1427 245.063 -15.8834 207.971 -15.3977 201.5C-13.3957 174.828 55.7389 148.015 56.0033 121.123C56.1171 109.553 54.1858 98.224 53.6868 86.7513C53.5635 83.9159 53.4081 81.134 53.7402 78.2966C54.6456 70.5623 53.6065 62.991 51.3182 55.5939C50.0335 51.4406 50.081 47.5229 51.888 43.456C54.6866 37.1572 55.7269 30.6379 55.4037 23.5645C55.0319 15.4282 56.1461 7.20618 63.0639 1.25941C64.2062 0.277489 65.2117 -0.806465 66.7084 -1.2674C72.561 -3.06989 77.5079 -6.2966 81.9161 -10.542C85.7567 -14.2408 90.2885 -15.1187 95.2694 -12.8081C100.824 -10.2311 106.648 -9.15238 112.776 -9.5936C117.832 -9.95769 122.679 -9.51989 127.12 -6.52305C130.803 -4.03773 134.195 -4.76354 137.364 -8.05312C141.329 -12.1671 144.63 -16.7216 147.662 -21.5199C148.906 -23.4879 149.987 -25.6737 151.628 -27.2562C161.9 -37.159 170.245 -49.023 181.818 -57.5625C192.173 -65.2036 203.779 -66.9551 216.313 -63.9311C234.448 -59.5561 252.641 -55.4742 270.097 -48.6767C278.065 -45.5737 286.663 -44.8443 295.023 -43.6603C302.325 -42.626 307.684 -48.2098 312.979 -52.2557C316.488 -54.9374 319.94 -57.6621 324.09 -58.6295C329.16 -59.8114 333.043 -62.8571 337.433 -65.1593C345.941 -69.6213 354.85 -72.6121 364.692 -70.0633C368.47 -69.0848 372.269 -69.18 376.09 -69.9083C390.124 -72.5833 401.551 -67.1734 410.425 -57.0631C417.483 -49.0215 426.304 -44.172 435.376 -39.3404C438.463 -37.6965 441.943 -36.53 444.575 -34.3418C452.964 -27.3689 462.982 -26.0633 473.194 -25.6999C478.35 -25.5164 483.309 -24.7527 487.551 -22.0977C496.291 -16.6281 506.43 -14.887 515.682 -10.8262C524.565 -6.92795 533.544 -3.36877 537.875 6.4071C538.837 8.579 541.214 9.59061 543.128 10.917C554.199 18.5899 562.924 28.3603 570.617 39.4432C579.037 51.5722 752.259 -20.3542 674.117 31.5652C679.865 37.1834 759.726 43.1993 678.617 76.0652C686.391 80.9956 691.456 94.4777 664.779 107.565C674.102 115.773 656.621 121.259 664.779 130.856C671.927 139.264 677.441 148.031 681.32 158.344C684.388 166.5 692.005 171.854 697.06 178.866C705.037 189.93 714.421 200.038 720.757 212.214C726.746 223.725 729.661 236.279 731.005 249.091C733.07 268.787 734.618 288.537 736.479 308.255C737.22 316.108 736.018 323.865 735.547 331.649C735.062 339.655 734.368 347.544 737.444 355.302C740.013 361.78 740.336 368.467 738.765 375.402C737.512 380.935 737.578 386.644 739.407 392.196C740.365 395.103 740.742 398.281 739.632 401.065C735.205 412.173 737.725 423.06 740.268 433.957C741.648 439.876 741.296 445.503 738.479 450.956C737.066 453.69 735.388 455.666 732.228 456.896C727.05 458.911 727.689 463.904 728.441 468.1C729.556 474.324 731.475 480.477 731.557 486.796C731.699 497.824 735.83 508.335 735.225 519.461C734.935 524.81 735.012 530.114 732.869 535.15C732.122 536.905 731.809 538.863 732.777 540.489C739.096 551.099 736.369 562.513 735.881 573.724C735.751 576.714 735.329 579.69 735.143 582.679C734.865 587.129 733.706 591.216 730.578 594.552C726.641 598.752 724.488 603.918 721.966 609.019C716.091 620.907 711.412 633.439 703.438 644.262C699.068 650.194 698.251 657.87 694.091 664.073C688.643 672.197 682.642 679.538 673.977 684.402C672.56 685.198 671.322 686.388 670.163 687.556C665.642 692.117 661.473 696.885 654.967 699.113C650.817 700.535 646.849 702.933 643.587 706.183C634.823 714.914 625.003 722.231 614.564 728.903C602.945 736.329 592.185 745.015 581.42 753.651C576.309 757.751 569.865 757.52 563.835 758.514C561.848 758.842 559.885 759.055 558.15 760.193C556.144 761.51 554.158 761.719 552.18 760.056C549.557 757.852 547.154 758.491 545.329 761.039C543.397 763.735 541.234 763.684 538.349 762.749C530.888 760.331 523.293 758.581 515.337 758.644C509.184 758.692 503.349 755.856 497.04 756.494C494.046 756.796 490.99 756.817 488.203 757.921C481.403 760.614 474.149 760.732 467.528 759.055C457.418 756.495 448.595 759.995 439.187 761.963C428.471 764.204 417.797 768.811 406.424 764.99C404.207 764.245 401.826 764.568 399.487 764.928C393.59 765.836 387.845 766.577 381.713 765.189C376.488 764.007 370.875 764.368 366.96 769.842C364.649 773.074 359.843 773.668 357.771 777.857C357.011 779.393 354.331 777.33 352.614 776.282C340.168 768.68 330.544 757.147 317.41 750.619C309.059 746.468 299.998 743.901 290.866 741.987C284.419 740.635 278.024 744.739 275.432 751.962C273.621 757.009 270.283 758.113 265.699 757.419C262.398 756.919 258.754 756.34 256.37 754.174C249.669 748.088 241.355 747.585 233.157 746.404C232.169 746.261 231.186 746.081 229.761 745.846ZM481.017 557.971C475.308 537.368 473.398 516.469 475.638 495.156C476.037 491.353 477.342 488.768 480.173 486.273C496.878 471.555 509.303 453.971 516.086 432.529C519.552 421.574 517.646 411.85 510.893 402.858C508.493 399.661 505.868 396.634 503.439 393.458C490.047 375.938 490.388 351.304 504.278 334.213C505.366 332.874 506.213 331.024 509.255 331.118C500.428 352.506 501.538 372.197 519.169 390.002C522.555 381.84 519.254 373.865 521.442 366.651C523.092 366.704 523.557 367.667 524.016 368.515C530.047 379.65 533.813 391.491 534.365 404.173C535.295 425.515 529.236 444.941 517.791 462.837C516.85 464.308 514.851 465.718 516.56 468.797C542.051 452.666 556.769 430.249 559.394 400.078C561.846 401.134 561.99 402.905 562.515 404.416C566.955 417.184 565.133 429.665 560.873 442.071C560.299 443.745 558.632 445.535 560.394 447.581C561.014 447.376 561.587 447.353 561.906 447.057C581.334 429.073 591.559 407.232 589.696 380.381C589.478 377.242 588.23 375.09 584.849 373.704C575.538 369.888 571.665 362.381 573.71 353.444C576.535 341.096 590.586 333.051 604.289 335.64C609.566 336.638 613.584 339.544 617.145 343.326C624.608 332.909 627.539 315.997 611.718 310.414C607.219 308.827 603.911 305.752 601.45 301.419C598.242 295.771 593.173 291.739 587.176 289.351C565.801 280.84 543.718 274.458 521.625 268.154C516.923 266.812 515.33 268.668 516.918 273.488C520.684 284.923 527.384 293.459 540.095 295.631C541.039 295.793 542.111 295.968 542.326 297.234C533.262 306.017 520.148 304.7 513.431 293.892C511.138 290.204 509.031 290.182 505.756 291.801C493.059 298.08 482.639 306.877 475.332 319.126C474.232 320.97 473.456 323.007 472.531 324.955C480.321 320.949 486.049 314.257 495.419 312.874C494.936 314.012 494.858 314.547 494.553 314.864C482.672 327.211 476.314 342.1 474.27 358.96C473.805 362.793 472.155 363.571 468.531 362.134C457.232 357.653 446.85 351.717 438.481 342.844C425.565 329.151 418.236 313.237 420.679 293.914C422.558 279.058 430.563 267.265 439.908 256.174C444.094 251.205 448.27 246.233 451.193 240.343C455.452 231.762 454.701 224.988 448.425 217.782C443.435 212.052 437.271 207.799 430.727 204.068C410.928 192.78 389.477 185.4 368.076 178.003C332.635 165.753 297.374 153.127 264.079 135.623C231.323 118.403 203.958 95.1181 183.321 64.2075C182.606 63.1366 182.161 61.7359 180.27 61.655C180.022 62.1364 179.573 62.6657 179.47 63.2552C177.824 72.7284 178.158 82.1979 180.107 91.5603C185.199 116.016 198.508 135.654 216.791 152.035C237.796 170.853 262.601 183.381 288.486 193.972C289.996 194.59 292.045 194.675 292.612 197.463C248.074 186.845 207.336 169.091 170.624 140.529C170.517 142.813 170.337 143.641 170.47 144.416C170.778 146.216 171.13 148.023 171.651 149.771C179.698 176.752 197.074 196.095 220.968 210.178C243.433 223.418 267.54 232.286 292.971 237.763C295.035 238.207 297.522 238.036 299.684 241.078C258.289 238.456 219.286 230.009 182.058 212.837C181.729 216.182 183.125 218.109 184.178 220.123C196.506 243.699 215.375 259.593 240.551 268.076C262.505 275.473 285.229 278.557 308.212 280.219C309.515 280.313 311.204 279.712 312.101 281.766C309.033 283.591 305.793 282.717 302.763 283.047C274.126 286.165 245.594 285.834 217.235 280.247C215.673 279.939 213.736 279.075 212.726 280.976C211.746 282.819 213.475 284.07 214.511 285.265C221.435 293.253 229.328 300.12 238.431 305.544C260.881 318.917 285.652 320.623 310.887 319.845C316.897 319.66 322.896 319.093 328.901 318.702C328.959 319.172 329.018 319.643 329.077 320.113C305.89 327.539 281.832 331.15 257.258 334.456C260.182 339.146 264.035 342.587 270.663 346.41C295.898 360.964 322.46 357.3 350.389 351.109C347.441 354.683 344.473 355.436 341.878 356.684C330.774 362.027 319.626 367.277 308.5 372.575C307.164 373.211 305.545 373.724 305.523 375.558C305.502 377.385 307.074 378.018 308.421 378.622C311.455 379.981 314.47 381.439 317.617 382.484C332.564 387.445 347.86 386.199 363.149 384.813C366.186 384.538 369.225 383.818 372.379 385.048C364.202 389.453 356.364 394.386 346.983 395.844C332.81 398.047 319.642 402.914 307.57 410.759C299.47 416.024 291.295 421.184 283.015 426.16C267.262 435.626 251.133 444.293 232.696 447.405C215.829 450.252 201.014 442.869 195.999 428.415C189.085 408.488 203.825 390.795 222.133 394.205C226.19 394.961 230.3 395.823 234.517 394.828C247.035 391.874 253.754 383.114 257.992 371.746C259.478 367.76 257.936 366.415 254.092 366.916C249.802 367.476 245.537 368.519 241.239 368.66C233.527 368.912 226.928 371.429 221.428 376.822C219.209 378.997 216.555 380.141 213.501 380.71C192.814 384.566 178.863 405.571 182.859 426.272C187.184 448.675 206.049 461.997 231.56 459.908C247.211 458.627 261.835 453.726 276.285 448.03C277.847 447.414 279.378 445.908 281.638 447.403C279.502 455.385 275.379 462.404 270.699 469.047C260.709 483.227 248.329 494.166 230.406 496.917C227.992 497.288 227.18 498.999 226.134 500.676C217.808 514.026 211.574 528.358 206.055 543.047C201.115 556.194 197.73 569.725 195.609 583.581C195.184 586.359 194.616 589.582 199.161 589.579C212.493 589.57 225.825 589.562 239.157 589.544C241.239 589.542 242.485 588.741 242.906 586.441C244.287 578.904 240.396 573.608 232.78 572.942C226.959 572.433 226.839 572.161 228.329 566.225C232.159 550.974 239.864 537.584 247.993 524.341C250.305 520.573 252.985 519.242 257.342 519.422C269.039 519.903 280.722 519.388 291.822 515.144C315.714 506.008 330.565 487.75 341.41 465.517C342.206 463.885 342.179 461.523 345.097 460.965C345.826 467.044 342.492 472.394 342.709 478.71C344.736 478.475 346.53 478.399 348.266 478.042C357.76 476.083 367.337 475.245 377.039 475.19C389.059 475.122 401.012 475.872 412.917 477.371C416.697 477.847 418.599 476.758 419.845 472.974C422.595 464.619 427.125 457.262 434.11 451.675C435.44 450.61 436.586 448.876 438.788 449.462C439.541 451.155 438.391 452.382 437.831 453.674C429.941 471.883 427.648 490.729 430.878 510.335C435.145 536.24 445.057 559.803 459.354 581.72C462.749 586.924 466.039 590.486 473.009 590.007C481.62 589.414 490.31 590.061 498.963 589.942C501.106 589.912 503.83 589.995 503.843 586.39C503.866 580.525 498.878 573.841 493.006 573.993C486.998 574.148 485.139 570.942 483.732 566.344C482.953 563.796 482.09 561.274 481.017 557.971ZM433.667 150.594C396.001 130.423 364.624 103.456 343.011 64.5475C339.953 70.3562 339.591 74.9769 339.484 79.553C339.057 97.7928 344.779 114.247 354.308 129.565C355.36 131.256 357.259 132.709 356.694 135.142C354.527 135.357 353.293 134.114 351.963 133.183C345.958 128.978 340.077 124.611 334.538 119.792C332.957 118.416 331.394 116.159 329.01 117.191C326.23 118.393 327.306 121.286 327.432 123.441C327.822 130.104 329.491 136.531 331.151 142.994C332.512 148.297 335.499 150.917 340.519 152.764C363.333 161.155 386.67 168.082 409.193 177.275C426.218 184.225 442.793 192.005 456.398 204.792C470.228 217.793 472.409 233.653 462.82 249.974C458.662 257.05 453.057 263.028 448.09 269.492C439.18 281.087 431.78 293.289 435.54 308.894C438.258 320.173 444.291 329.429 452.838 336.962C454.579 336.022 454.685 334.825 454.949 333.697C458.817 317.195 466.464 302.891 479.429 291.694C481.01 290.327 481.902 288.659 482.357 286.619C485.938 270.556 494.797 258.134 508.387 248.968C512.25 246.362 516.17 243.815 519.509 240.511C529.459 230.662 530.116 219.25 521.352 208.424C513.823 199.126 504.521 191.835 494.679 185.226C475.42 172.292 454.328 162.562 433.667 150.594ZM542.179 478.619C542.468 476.719 543.683 474.531 541.432 473.177C539.468 471.996 538.036 473.765 536.569 474.763C524.824 482.749 512.49 489.593 498.972 494.13C492.732 496.224 492.677 496.246 494.776 502.552C505.37 534.365 523.576 561.613 545.328 586.727C546.662 588.267 548.177 589.409 550.383 589.566C561.36 590.348 572.332 589.384 583.306 589.563C586.087 589.609 586.49 588.036 586.276 585.631C585.604 578.055 580.033 572.313 572.198 572.065C569.078 571.966 567.34 570.775 565.759 568.383C547.906 541.382 537.205 512.49 542.179 478.619ZM358.172 589.497C360.972 589.571 361.929 588.115 361.882 585.439C361.787 579.945 356.921 574.187 351.299 574.099C347.042 574.032 345.647 572.027 344.592 568.385C342.176 560.049 340.824 551.536 339.34 543.016C338.587 538.691 339.604 536.792 343.898 535.532C356.893 531.718 368.523 525.261 377.746 515.223C383.662 508.784 388.725 501.628 390.961 492.006C378.977 490.191 367.61 489.757 356.229 491.595C350.714 492.486 344.71 492.772 340.785 497.56C332.814 507.284 323.816 515.864 313.447 522.967C310.776 524.797 310.05 527.092 310.189 530.202C311.035 549.172 315.59 567.307 322.08 585.052C323.301 588.392 325.328 589.705 328.8 589.654C338.288 589.515 347.779 589.556 358.172 589.497ZM590.788 577.97C591.248 580.244 591.777 582.506 592.155 584.793C592.882 589.197 594.964 590.68 599.279 589.439C603.458 588.237 601.924 585.024 601.194 582.51C600.081 578.677 597.619 575.824 593.736 574.38C590.755 573.271 589.595 574.078 590.788 577.97ZM368.369 575.06C365.774 574.635 365.688 575.95 366.145 577.988C366.722 580.562 367.241 583.182 367.415 585.807C367.731 590.577 371.11 589.737 373.965 589.441C377.461 589.079 376.96 586.503 376.293 584.174C375.152 580.194 373.097 576.893 368.369 575.06ZM510.23 586.893C511.31 590.641 514.304 589.495 516.796 589.351C518.364 589.26 518.883 588.028 519.007 586.54C519.48 580.861 514.359 575.375 508.256 575.403C508.867 578.99 509.471 582.536 510.23 586.893ZM255.315 577.905C253.956 576.647 252.467 575.315 250.526 576.195C248.642 577.05 249.329 579.04 249.227 580.617C249.142 581.932 249.263 583.271 249.067 584.565C248.626 587.483 248.534 589.769 252.693 589.626C256.587 589.491 258.113 587.755 257.668 584.062C257.431 582.091 256.908 580.183 255.315 577.905Z" fill="white"/>
<path d="M587.893 314.539C582.053 315.268 578.16 318.252 575.49 323.426C573.293 320.444 574.605 317.993 575.536 315.925C576.915 312.863 576.198 311.07 573.521 309.297C570.702 307.43 567.509 305.638 567.264 301.552C574.909 300.325 590.156 307.072 592.734 312.743C591.669 314.392 589.715 313.766 587.893 314.539Z" fill="black"/>
</mask>
<g mask="url(#mask0_160_11)">
<circle cx="351.102" cy="356" r="353" fill="white"/>
</g>
</g>
<defs>
<clipPath id="clip0_160_11">
<rect width="708" height="708" fill="white"/>
</clipPath>
</defs>
</svg>
