<svg width="366" height="366" viewBox="0 0 366 366" fill="none" xmlns="http://www.w3.org/2000/svg">
<g clip-path="url(#clip0_167_634)">
<path d="M183 0C284.068 0 366 81.9319 366 183C366 284.068 284.068 366 183 366C81.9319 366 0 284.068 0 183C0 81.9319 81.9319 0 183 0ZM92.375 62C84.319 62 76.5929 65.2001 70.8965 70.8965C65.2001 76.5929 62 84.319 62 92.375V274.625C62 282.681 65.2001 290.407 70.8965 296.104C76.5929 301.8 84.319 305 92.375 305H193.625L163.25 292.142C159.329 290.529 155.856 287.993 153.125 284.75H92.375C89.6897 284.75 87.1146 283.683 85.2158 281.784C83.317 279.885 82.25 277.31 82.25 274.625V115.156C82.25 114.485 82.5165 113.841 82.9912 113.366C83.4659 112.892 84.1099 112.625 84.7812 112.625H282.219C282.89 112.625 283.534 112.892 284.009 113.366C284.483 113.841 284.75 114.485 284.75 115.156V167.503L305 176.108V92.375C305 84.319 301.8 76.5929 296.104 70.8965C290.407 65.2001 282.681 62 274.625 62H92.375ZM234.126 163.261C232.769 163.261 231.426 163.533 230.177 164.062L169.427 190.084C167.597 190.859 166.036 192.155 164.938 193.812C163.839 195.468 163.253 197.411 163.251 199.398V268.856C163.253 270.844 163.839 272.787 164.938 274.443C166.036 276.099 167.597 277.396 169.427 278.171L230.177 304.192C231.426 304.721 232.769 304.994 234.126 304.994C235.482 304.994 236.825 304.721 238.074 304.192L298.824 278.171C300.654 277.396 302.216 276.1 303.314 274.443C304.413 272.787 304.999 270.844 305.001 268.856V199.398C304.999 197.411 304.413 195.468 303.314 193.812C302.216 192.155 300.654 190.859 298.824 190.084L238.074 164.062C236.825 163.533 235.483 163.261 234.126 163.261ZM224.001 232.103V279.487L183.501 262.174V214.788L224.001 232.103ZM284.751 262.174L244.251 279.487V232.103L284.751 214.788V262.174ZM269.158 199.398L234.126 214.484L199.094 199.398L234.126 184.413L269.158 199.398ZM97.4375 77.1875C100.123 77.1875 102.698 78.2545 104.597 80.1533C106.495 82.0521 107.562 84.6272 107.562 87.3125C107.562 89.9978 106.495 92.5729 104.597 94.4717C102.698 96.3705 100.123 97.4375 97.4375 97.4375C94.7522 97.4375 92.1771 96.3705 90.2783 94.4717C88.3795 92.5729 87.3125 89.9978 87.3125 87.3125C87.3125 84.6272 88.3795 82.0521 90.2783 80.1533C92.1771 78.2545 94.7522 77.1875 97.4375 77.1875ZM132.875 77.1875C135.56 77.1875 138.135 78.2545 140.034 80.1533C141.933 82.0521 143 84.6272 143 87.3125C143 89.9978 141.933 92.5729 140.034 94.4717C138.135 96.3705 135.56 97.4375 132.875 97.4375C130.19 97.4375 127.615 96.3705 125.716 94.4717C123.817 92.5729 122.75 89.9978 122.75 87.3125C122.75 84.6272 123.817 82.0521 125.716 80.1533C127.615 78.2545 130.19 77.1875 132.875 77.1875ZM168.312 77.1875C170.998 77.1875 173.573 78.2545 175.472 80.1533C177.37 82.0521 178.438 84.6272 178.438 87.3125C178.438 89.9978 177.37 92.5729 175.472 94.4717C173.573 96.3705 170.998 97.4375 168.312 97.4375C165.627 97.4375 163.052 96.3705 161.153 94.4717C159.255 92.5729 158.188 89.9978 158.188 87.3125C158.188 84.6272 159.255 82.0521 161.153 80.1533C163.052 78.2545 165.627 77.1875 168.312 77.1875Z" fill="white"/>
</g>
<defs>
<clipPath id="clip0_167_634">
<rect width="366" height="366" fill="white"/>
</clipPath>
</defs>
</svg>
