<svg width="512" height="512" viewBox="0 0 512 512" fill="none" xmlns="http://www.w3.org/2000/svg">
<g clip-path="url(#clip0_163_8)">
<path d="M256 0C397.385 0 512 114.615 512 256C512 397.385 397.385 512 256 512C114.615 512 0 397.385 0 256C0 114.615 114.615 0 256 0ZM157.343 122.166C108.791 146.642 105.046 148.782 97.957 156.272C87.5247 166.972 84.3147 177.004 85.1172 196.665C85.5184 208.569 86.0538 211.378 89.7988 219.002C92.0724 223.817 94.7473 228.898 95.9512 230.236C97.8237 232.778 97.9576 232.377 99.9639 225.556C103.04 215.257 107.187 209.505 114.409 205.894C120.294 202.951 121.632 202.951 150.388 203.219L180.349 203.62L163.63 212.982C144.771 223.682 136.344 231.173 124.708 248.025C120.562 254.178 117.486 259.127 118.021 259.127C119.761 259.125 143.568 244.949 162.024 232.912L181.151 220.473L181.418 279.457L181.819 338.575L193.188 327.875L204.558 317.309L204.959 323.194C205.628 331.62 203.621 335.232 193.055 344.729L183.559 353.154L177.005 346.601L170.451 340.181V326.404C170.451 317.443 169.916 312.628 168.979 312.628C168.177 312.628 162.693 317.309 156.675 322.927C150.522 328.678 141.293 337.371 135.943 342.32C130.727 347.269 126.312 352.218 126.312 353.556C126.313 359.173 129.657 372.815 130.994 372.815C131.797 372.815 135.675 369.472 139.688 365.46C143.7 361.448 147.445 358.104 147.98 358.104C148.515 358.104 149.051 365.727 149.051 375.224V392.344L158.413 401.572C163.495 406.654 168.042 410.399 168.578 409.865C169.113 409.464 169.782 403.178 170.05 395.955L170.719 382.848L175.935 377.497L181.151 372.147V421.501L188.24 427.922L195.195 434.476L195.596 419.361C195.997 405.184 196.131 404.113 199.475 400.636C201.481 398.496 203.487 396.892 203.889 396.892C204.424 396.892 205.093 403.712 205.494 411.871C206.297 428.857 209.774 441.029 217.531 454.137C222.213 462.162 250.033 491.854 252.708 491.854C255.651 491.854 283.337 461.894 288.554 453.066C291.362 448.251 294.839 440.494 296.311 435.812C299.253 426.049 301.794 404.649 300.591 399.566C299.922 396.356 300.056 396.356 304.336 400.636C308.883 404.916 308.884 405.05 309.553 419.763L310.221 434.743L317.31 428.056L324.265 421.501V372.281L330.284 378.166L336.303 384.051V412.272L357.034 391.541L357.436 374.153C357.703 364.523 358.238 356.766 358.773 356.766C359.31 356.768 363.322 360.512 367.868 364.925L376.295 373.217L377.097 368.001C377.632 365.192 378.569 360.779 379.237 358.237C379.772 355.696 379.772 352.754 379.237 351.684C378.569 350.48 368.804 340.983 357.569 330.551L336.972 311.558L335.634 338.843L328.946 346.467L322.393 354.225L301.394 333.226L301.795 325.869L302.196 318.646L312.896 328.544L323.597 338.575L323.998 282.133C324.132 250.703 324.8 225.692 325.469 225.689C326.138 225.689 336.838 231.173 349.143 237.86C380.842 254.847 427.923 277.584 426.986 275.444C426.85 274.771 419.628 262.735 411.203 248.561L395.822 223.015L382.447 217.798C375.091 214.855 348.608 204.957 323.597 195.595C298.586 186.232 277.319 177.941 276.516 177.271C274.643 175.8 274.108 165.502 275.847 165.501C278.388 165.501 375.894 201.213 403.714 212.181C409.463 214.587 414.543 216.192 414.814 215.792C415.216 215.391 408.395 203.486 399.567 189.309L383.65 163.495L357.034 162.692C337.507 162.157 328.412 161.355 323.597 159.75C319.985 158.546 305.808 155.871 292.165 153.998C278.527 151.992 267.16 150.255 266.886 149.986C266.618 149.719 268.089 147.043 270.096 144.101C272.503 140.757 274.777 138.751 276.649 138.751C281.464 138.751 324.799 146.508 328.946 148.113C331.22 149.05 345.264 149.985 361.047 150.387C398.096 151.457 400.504 150.789 415.617 136.076L426.585 125.51L354.761 125.376C315.174 125.376 282.807 124.974 282.802 124.439C282.802 123.904 284.407 121.23 286.279 118.421L289.891 113.338H347.137L359.174 104.911L371.212 96.6191L326.138 96.2178L280.93 95.9502L275.713 100.899C272.77 103.709 264.344 115.345 256.721 126.713C242.142 148.916 235.588 156.004 224.754 160.953C200.277 172.188 183.425 169.38 166.438 151.323L158.279 142.496L165.368 139.019C171.922 135.809 173.795 135.541 191.45 135.407H210.576L212.048 128.051C214.99 113.338 213.519 114.676 225.557 114.676C235.989 114.676 236.524 114.541 245.218 108.79C250.033 105.58 255.517 101.3 257.256 99.4277L260.466 95.9502H209.105L157.343 122.166ZM299.922 353.689L300.323 365.326L277.185 388.465C264.478 401.171 253.511 411.603 252.842 411.604C252.307 411.604 241.205 401.171 228.499 388.465L205.227 365.46V342.855L209.64 346.734C211.913 348.874 222.614 359.307 233.314 369.873L252.842 389L276.114 365.46L299.521 341.919L299.922 353.689ZM208.303 285.209C209.909 286.681 220.608 296.979 231.977 308.08L252.708 328.41L276.114 305.673L299.521 282.935L299.922 294.705L300.323 306.476L252.708 354.091L229.034 330.283L205.227 306.476V282.801L208.303 285.209ZM336.303 293.769L350.614 306.207C358.506 313.028 373.619 326.27 384.319 335.633L403.847 352.619L404.649 339.646C406.254 315.436 405.987 283.87 404.248 281.597C403.311 280.392 394.885 275.444 385.523 270.495L368.403 261.534V281.329L375.759 287.616C383.918 294.839 384.854 297.38 384.186 311.959L383.784 321.188L370.811 308.748L357.703 296.31V258.859L353.824 255.382C351.684 253.376 346.869 250.032 343.124 248.025L336.303 244.28V293.769ZM169.515 243.21C168.846 243.21 164.298 246.152 159.082 249.63L149.72 256.051L149.051 276.247L148.382 296.577L139.02 306.073C133.937 311.29 128.051 316.64 126.045 318.111L122.3 320.786V296.577L130.325 288.819L138.351 280.928V272.101C138.351 267.152 137.949 263.14 137.548 263.14C137.146 263.14 128.987 267.687 119.491 273.305L102.237 283.47V317.442C102.237 336.168 102.639 351.415 103.04 351.415C103.442 351.414 111.735 344.326 121.364 335.633C131.128 326.939 145.439 314.366 153.464 307.411C161.355 300.59 168.445 293.902 169.113 292.564C170.718 289.621 170.986 243.08 169.515 243.21ZM216.327 238.529C222.346 244.414 232.779 254.58 239.601 261C246.288 267.42 252.307 272.636 252.976 272.502C253.511 272.501 264.479 262.337 277.185 250.3L300.189 228.097V246.421L253.511 293.1L234.384 274.643C203.621 244.816 205.227 246.956 205.227 236.523V227.695L216.327 238.529ZM287.885 201.614C288.42 201.615 291.63 203.754 295.241 206.295C298.719 208.97 301.527 211.512 301.527 212.047C301.525 212.584 295.507 219.004 288.152 226.358L274.777 239.733V231.173C274.777 222.747 274.911 222.613 280.796 217.263C285.878 212.581 286.814 211.11 286.814 206.696C286.814 203.888 287.216 201.614 287.885 201.614ZM220.741 213.384L230.639 222.346V230.236C230.639 237.459 230.505 237.861 228.365 236.256C222.213 231.709 205.229 214.189 205.227 212.448C205.227 211.378 206.564 209.104 208.035 207.499L210.978 204.423L220.741 213.384ZM243.346 174.863C244.149 174.864 249.766 178.208 256.052 182.354C262.338 186.5 267.689 190.111 267.956 190.379C268.755 191.051 254.313 206.964 252.842 206.964C252.039 206.964 246.555 202.283 240.804 196.397C229.034 184.628 228.633 182.622 237.06 177.807C239.735 176.202 242.677 174.863 243.346 174.863ZM143.7 149.451C144.101 149.451 148.649 153.597 153.731 158.813L162.961 168.176H124.842L125.645 165.1C127.383 159.482 130.325 156.139 136.745 152.929C140.222 151.057 143.297 149.586 143.7 149.451ZM355.028 22.2529C355.028 20.2467 256.319 20.7819 250.701 22.9219C248.158 23.8596 228.23 36.298 206.563 50.6084C175.132 71.4735 165.502 78.5625 159.35 85.3838C151.86 93.5424 141.561 111.598 142.497 114.541C142.765 115.21 155.738 108.79 171.119 100.229L199.207 84.5811L290.827 83.9121C377.631 83.2434 382.714 83.1096 387.128 80.7021C392.077 78.0271 409.866 61.5756 409.866 59.5693C409.858 59.0344 370.94 58.3662 323.329 58.2324L236.791 57.8311L244.549 52.4805L252.307 47.1309L288.019 46.4619L323.597 45.793L331.086 42.0479C338.442 38.3029 355.028 24.6607 355.028 22.2529Z" fill="white"/>
</g>
<defs>
<clipPath id="clip0_163_8">
<rect width="512" height="512" fill="white"/>
</clipPath>
</defs>
</svg>
